<svg version="1.1" xmlns="http://www.w3.org/2000/svg" width="32" height="32" viewBox="0 0 32 32">
<path d="M16 21.333c1.667 0 3.083-0.583 4.25-1.75s1.75-2.583 1.75-4.25c0-1.667-0.583-3.083-1.75-4.25s-2.583-1.75-4.25-1.75c-1.667 0-3.083 0.583-4.25 1.75s-1.75 2.583-1.75 4.25c0 1.667 0.583 3.083 1.75 4.25s2.583 1.75 4.25 1.75zM16 18.933c-1 0-1.85-0.35-2.55-1.050s-1.050-1.55-1.050-2.55c0-1 0.35-1.85 1.050-2.55s1.55-1.050 2.55-1.050c1 0 1.85 0.35 2.55 1.050s1.050 1.55 1.050 2.55c0 1-0.35 1.85-1.050 2.55s-1.55 1.050-2.55 1.050zM16 25.333c-3.244 0-6.2-0.906-8.867-2.717s-4.6-4.239-5.8-7.283c1.2-3.044 3.133-5.472 5.8-7.283s5.622-2.717 8.867-2.717c3.244 0 6.2 0.906 8.867 2.717s4.6 4.239 5.8 7.283c-1.2 3.044-3.133 5.472-5.8 7.283s-5.622 2.717-8.867 2.717zM16 22.667c2.511 0 4.817-0.661 6.917-1.983s3.706-3.106 4.817-5.35c-1.111-2.244-2.717-4.028-4.817-5.35s-4.406-1.983-6.917-1.983c-2.511 0-4.817 0.661-6.917 1.983s-3.706 3.106-4.817 5.35c1.111 2.244 2.717 4.028 4.817 5.35s4.406 1.983 6.917 1.983z"></path>
</svg>