<svg width="36" height="24" viewBox="0 0 36 24" fill="none" xmlns="http://www.w3.org/2000/svg">
<g clip-path="url(#clip0_10_176)">
<path d="M0 0H36V24.0003H0V0Z" fill="white"/>
<path d="M20.25 0H15.75V9.74996H0V14.25H15.75V23.9999H20.25V14.25H36V9.74996H20.25V0Z" fill="#D80027"/>
<path d="M27.6881 16.1738L36.0001 20.7917V16.1738H27.6881ZM21.9131 16.1738L36.0001 23.9999V21.7869L25.8966 16.1738H21.9131ZM32.2478 23.9999L21.9131 18.2579V23.9999H32.2478Z" fill="#0052B4"/>
<path d="M21.9131 16.1738L36.0001 23.9999V21.7869L25.8966 16.1738H21.9131Z" fill="white"/>
<path d="M21.9131 16.1738L36.0001 23.9999V21.7869L25.8966 16.1738H21.9131Z" fill="#D80027"/>
<path d="M6.3521 16.1738L0 19.7028V16.1738H6.3521ZM14.087 17.169V24H1.79234L14.087 17.169Z" fill="#0052B4"/>
<path d="M10.1034 16.1738L0 21.7869V23.9999L14.087 16.1738H10.1034Z" fill="#D80027"/>
<path d="M8.31199 7.82607L0 3.20822V7.82607H8.31199ZM14.087 7.82607L0 0V2.21302L10.1034 7.82607H14.087ZM3.7523 0L14.087 5.74201V0H3.7523Z" fill="#0052B4"/>
<path d="M14.087 7.82607L0 0V2.21302L10.1034 7.82607H14.087Z" fill="white"/>
<path d="M14.087 7.82607L0 0V2.21302L10.1034 7.82607H14.087Z" fill="#D80027"/>
<path d="M29.648 7.82614L36.0001 4.29715V7.82614H29.648ZM21.9131 6.83094V0H34.2077L21.9131 6.83094Z" fill="#0052B4"/>
<path d="M25.8966 7.82607L36.0001 2.21302V0L21.9131 7.82607H25.8966Z" fill="#D80027"/>
</g>
<defs>
<clipPath id="clip0_10_176">
<rect width="36" height="24" rx="2" fill="white"/>
</clipPath>
</defs>
</svg>
