<svg width="97" height="26" viewBox="0 0 97 26" fill="none" xmlns="http://www.w3.org/2000/svg">
<path d="M4.04 5V19H2.74V5H4.04ZM2.8 17.54V19H1.2V18.8C1.2 18.8 1.24 18.8 1.32 18.8C1.41333 18.8 1.46 18.8 1.46 18.8C1.80667 18.8 2.1 18.68 2.34 18.44C2.59333 18.1867 2.72667 17.8867 2.74 17.54H2.8ZM2.8 6.46H2.74C2.72667 6.11333 2.59333 5.82 2.34 5.58C2.1 5.32667 1.80667 5.2 1.46 5.2C1.46 5.2 1.41333 5.2 1.32 5.2C1.24 5.2 1.2 5.2 1.2 5.2V5H2.8V6.46ZM3.98 17.54H4.04C4.05333 17.8867 4.18 18.1867 4.42 18.44C4.67333 18.68 4.97333 18.8 5.32 18.8C5.32 18.8 5.36 18.8 5.44 18.8C5.52 18.8 5.56667 18.8 5.58 18.8V19H3.98V17.54ZM3.98 6.46V5H5.58V5.2C5.56667 5.2 5.52 5.2 5.44 5.2C5.36 5.2 5.32 5.2 5.32 5.2C4.97333 5.2 4.67333 5.32667 4.42 5.58C4.18 5.82 4.05333 6.11333 4.04 6.46H3.98ZM8.91781 6.7L19.9978 17.14L20.1978 19.28L9.11781 8.78L8.91781 6.7ZM8.95781 17.76V19H7.45781V18.8C7.45781 18.8 7.51115 18.8 7.61781 18.8C7.73781 18.8 7.79781 18.8 7.79781 18.8C8.10448 18.8 8.36448 18.7 8.57781 18.5C8.79115 18.3 8.89781 18.0533 8.89781 17.76H8.95781ZM9.79781 17.76C9.79781 18.0533 9.90448 18.3 10.1178 18.5C10.3445 18.7 10.6045 18.8 10.8978 18.8C10.8978 18.8 10.9511 18.8 11.0578 18.8C11.1778 18.8 11.2378 18.8 11.2378 18.8V19H9.73781V17.76H9.79781ZM8.91781 6.7L9.77781 7.82L9.79781 19H8.89781V9.2C8.89781 8.52 8.86448 7.93333 8.79781 7.44C8.74448 6.94667 8.71781 6.7 8.71781 6.7H8.91781ZM20.1978 7V16.72C20.1978 17.1467 20.2111 17.56 20.2378 17.96C20.2645 18.3467 20.2911 18.6667 20.3178 18.92C20.3578 19.16 20.3778 19.28 20.3778 19.28H20.1978L19.3178 18.22V7H20.1978ZM20.1378 8.24V7H21.6378V7.2C21.6378 7.2 21.5778 7.2 21.4578 7.2C21.3511 7.2 21.2978 7.2 21.2978 7.2C21.0045 7.2 20.7445 7.3 20.5178 7.5C20.3045 7.7 20.1978 7.94667 20.1978 8.24H20.1378ZM19.3178 8.24C19.3045 7.94667 19.1911 7.7 18.9778 7.5C18.7645 7.3 18.5045 7.2 18.1978 7.2C18.1978 7.2 18.1378 7.2 18.0178 7.2C17.9111 7.2 17.8578 7.2 17.8578 7.2V7H19.3578V8.24H19.3178ZM28.8838 19.28L23.3838 7.12H24.9638L29.2238 17.5L28.8838 19.28ZM28.8838 19.28L28.7438 17.9L33.3238 7.06H34.5838L29.8438 17.22C29.8438 17.22 29.8038 17.3 29.7238 17.46C29.6571 17.62 29.5704 17.82 29.4638 18.06C29.3704 18.2867 29.2838 18.5133 29.2038 18.74C29.1238 18.9667 29.0771 19.1467 29.0638 19.28H28.8838ZM32.7438 8.46C32.8904 8.06 32.8704 7.75333 32.6838 7.54C32.4971 7.31333 32.2838 7.2 32.0438 7.2H31.9038V7H35.7038V7.2C35.7038 7.2 35.6771 7.2 35.6238 7.2C35.5704 7.2 35.5438 7.2 35.5438 7.2C35.2638 7.2 34.9771 7.3 34.6838 7.5C34.3904 7.68667 34.1371 8.00667 33.9238 8.46H32.7438ZM25.5038 8.46H23.9838C23.7838 8.00667 23.5371 7.68667 23.2438 7.5C22.9504 7.3 22.6704 7.2 22.4038 7.2C22.4038 7.2 22.3771 7.2 22.3237 7.2C22.2704 7.2 22.2437 7.2 22.2437 7.2V7H26.3438V7.2H26.1838C25.9571 7.2 25.7504 7.31333 25.5638 7.54C25.3904 7.75333 25.3704 8.06 25.5038 8.46ZM39.6055 7V19H38.3455V7H39.6055ZM38.4055 17.72V19H36.7055V18.8C36.7055 18.8 36.7521 18.8 36.8455 18.8C36.9388 18.8 36.9855 18.8 36.9855 18.8C37.3588 18.8 37.6721 18.6933 37.9255 18.48C38.1921 18.2667 38.3321 18.0133 38.3455 17.72H38.4055ZM39.5455 17.72H39.6055C39.6188 18.0133 39.7521 18.2667 40.0055 18.48C40.2721 18.6933 40.5921 18.8 40.9655 18.8C40.9655 18.8 41.0055 18.8 41.0855 18.8C41.1788 18.8 41.2255 18.8 41.2255 18.8L41.2455 19H39.5455V17.72ZM39.5455 8.28V7H41.2455L41.2255 7.2C41.2255 7.2 41.1788 7.2 41.0855 7.2C41.0055 7.2 40.9655 7.2 40.9655 7.2C40.5921 7.2 40.2721 7.30667 40.0055 7.52C39.7521 7.72 39.6188 7.97333 39.6055 8.28H39.5455ZM38.4055 8.28H38.3455C38.3321 7.97333 38.1921 7.72 37.9255 7.52C37.6721 7.30667 37.3588 7.2 36.9855 7.2C36.9721 7.2 36.9188 7.2 36.8255 7.2C36.7455 7.2 36.7055 7.2 36.7055 7.2V7H38.4055V8.28ZM49.1642 5.06V19H47.8642V5.06H49.1642ZM54.3042 4.98V5.58H42.7242V4.98H54.3042ZM54.3042 5.52V7.14L54.1042 7.12V6.78C54.1042 6.44667 53.9842 6.16667 53.7442 5.94C53.5176 5.71333 53.2442 5.59333 52.9242 5.58V5.52H54.3042ZM54.3042 4.62V5.2L51.8642 4.98C52.1576 4.98 52.4642 4.96 52.7842 4.92C53.1176 4.88 53.4242 4.83333 53.7042 4.78C53.9842 4.72667 54.1842 4.67333 54.3042 4.62ZM47.9242 17.54V19H46.3242V18.8C46.3242 18.8 46.3642 18.8 46.4442 18.8C46.5376 18.8 46.5842 18.8 46.5842 18.8C46.9309 18.8 47.2242 18.68 47.4642 18.44C47.7176 18.1867 47.8509 17.8867 47.8642 17.54H47.9242ZM49.1042 17.54H49.1642C49.1776 17.8867 49.3042 18.1867 49.5442 18.44C49.7976 18.68 50.0976 18.8 50.4442 18.8C50.4442 18.8 50.4842 18.8 50.5642 18.8C50.6576 18.8 50.7042 18.8 50.7042 18.8V19H49.1042V17.54ZM44.1042 5.52V5.58C43.7709 5.59333 43.4909 5.71333 43.2642 5.94C43.0376 6.16667 42.9242 6.44667 42.9242 6.78V7.12L42.7242 7.14V5.52H44.1042ZM42.7242 4.62C42.8576 4.67333 43.0576 4.72667 43.3242 4.78C43.6042 4.83333 43.9109 4.88 44.2442 4.92C44.5776 4.96 44.8842 4.98 45.1642 4.98L42.7242 5.2V4.62ZM58.5075 7V19H57.2275V7H58.5075ZM63.8875 18.38L63.8475 19H58.4675V18.38H63.8875ZM62.9475 12.7V13.3H58.4675V12.7H62.9475ZM63.8675 7V7.62H58.4675V7H63.8675ZM65.0075 16.14L63.9075 19H60.8675L61.5475 18.38C62.2142 18.38 62.7475 18.2867 63.1475 18.1C63.5608 17.9 63.8942 17.6333 64.1475 17.3C64.4008 16.9533 64.6208 16.5667 64.8075 16.14H65.0075ZM62.9475 13.26V14.4H62.7275V14.14C62.7275 13.9133 62.6608 13.72 62.5275 13.56C62.3942 13.3867 62.1875 13.3 61.9075 13.3V13.26H62.9475ZM62.9475 11.6V12.74H61.9075V12.7C62.1875 12.7 62.3942 12.62 62.5275 12.46C62.6608 12.2867 62.7275 12.0867 62.7275 11.86V11.6H62.9475ZM63.8675 7.56V8.94H63.6475V8.64C63.6475 8.36 63.5542 8.12 63.3675 7.92C63.1942 7.72 62.9542 7.62 62.6475 7.62V7.56H63.8675ZM63.8675 6.68V7.2L61.5875 7C62.0008 7 62.4408 6.96667 62.9075 6.9C63.3742 6.82 63.6942 6.74667 63.8675 6.68ZM57.2675 17.72L57.5275 19H55.7875V18.8C55.7875 18.8 55.8342 18.8 55.9275 18.8C56.0208 18.8 56.0675 18.8 56.0675 18.8C56.4008 18.8 56.6742 18.6933 56.8875 18.48C57.1008 18.2667 57.2142 18.0133 57.2275 17.72H57.2675ZM57.2675 8.26H57.2275C57.2142 7.95333 57.1008 7.7 56.8875 7.5C56.6742 7.3 56.4008 7.2 56.0675 7.2C56.0675 7.2 56.0208 7.2 55.9275 7.2C55.8342 7.2 55.7875 7.2 55.7875 7.2V7H57.5275L57.2675 8.26ZM72.3255 6.72L77.8255 18.88H76.2455L71.9855 8.5L72.3255 6.72ZM68.4655 17.54C68.3188 17.94 68.3388 18.2533 68.5255 18.48C68.7121 18.6933 68.9255 18.8 69.1655 18.8H69.3255V19H65.5055V18.8C65.5055 18.8 65.5321 18.8 65.5855 18.8C65.6388 18.8 65.6655 18.8 65.6655 18.8C65.9455 18.8 66.2321 18.7067 66.5255 18.52C66.8188 18.32 67.0721 17.9933 67.2855 17.54H68.4655ZM72.3255 6.72L72.4655 8.1L67.8855 18.94H66.6255L71.3655 8.78C71.3655 8.78 71.3988 8.7 71.4655 8.54C71.5455 8.38 71.6321 8.18667 71.7255 7.96C71.8321 7.72 71.9255 7.48667 72.0055 7.26C72.0855 7.03333 72.1321 6.85333 72.1455 6.72H72.3255ZM74.6855 14.34V14.94H69.3855V14.34H74.6855ZM75.7055 17.54H77.2255C77.4255 17.9933 77.6721 18.32 77.9655 18.52C78.2588 18.7067 78.5388 18.8 78.8055 18.8C78.8055 18.8 78.8321 18.8 78.8855 18.8C78.9388 18.8 78.9655 18.8 78.9655 18.8V19H74.8655V18.8H75.0255C75.2521 18.8 75.4588 18.6933 75.6455 18.48C75.8321 18.2533 75.8521 17.94 75.7055 17.54ZM92.8272 6.72L93.0072 8.02L88.3272 17.24C88.3272 17.24 88.2739 17.3533 88.1672 17.58C88.0739 17.8067 87.9739 18.08 87.8672 18.4C87.7605 18.7067 87.6805 19 87.6272 19.28H87.4272L87.1472 18.02L92.8272 6.72ZM81.1072 17.66V19H79.0272V18.8C79.0272 18.8 79.0739 18.8 79.1672 18.8C79.2739 18.8 79.3272 18.8 79.3272 18.8C79.6739 18.8 79.9739 18.7 80.2272 18.5C80.4939 18.3 80.6472 18.02 80.6872 17.66H81.1072ZM81.7072 17.96C81.6939 18.16 81.7405 18.3533 81.8472 18.54C81.9539 18.7133 82.1539 18.8067 82.4472 18.82H82.7272V19H81.5872V17.96H81.7072ZM82.2472 6.72H82.4472L82.8472 7.9L81.6072 19H80.5072L82.2472 6.72ZM82.4472 6.72L87.8872 17.18L87.4272 19.28L82.0672 8.92L82.4472 6.72ZM93.0072 6.72L94.8072 19H93.2872L91.9872 8.94L92.8272 6.72H93.0072ZM94.2072 17.66H94.6072C94.6605 18.02 94.8205 18.3 95.0872 18.5C95.3539 18.7 95.6539 18.8 95.9872 18.8C95.9872 18.8 96.0339 18.8 96.1272 18.8C96.2339 18.8 96.2872 18.8 96.2872 18.8V19H94.2072V17.66ZM93.1472 17.96H93.2872V19H92.1272V18.82H92.4272C92.7339 18.8067 92.9339 18.7067 93.0272 18.52C93.1339 18.3333 93.1739 18.1467 93.1472 17.96Z" fill="#2D0C03"/>
</svg>
