<!-- <svg version="1.1" xmlns="http://www.w3.org/2000/svg" width="1024" height="1024" viewBox="0 0 1024 1024">
<path fill="#000" d="M523.392 387.092l37.747 124.888h113.243l-91.156 65.054 37.348 120.87-97.182-73.885-97.18 73.885 37.346-120.87-91.156-65.054h113.242l37.748-124.888zM523.392 110.412l-97.18 321.255h-304.389l247.768 177.089-93.967 304.791 247.768-188.332 248.168 188.332-94.365-304.791 247.766-177.089h-304.387l-97.182-321.255z"></path>
</svg> -->

<svg xmlns="http://www.w3.org/2000/svg" width="17" height="17" viewBox="0 0 17 17" fill="none">
<path d="M8.68913 6.42634L9.31579 8.49967H11.1958L9.68246 9.57967L10.3025 11.5863L8.68913 10.3597L7.07579 11.5863L7.69579 9.57967L6.18246 8.49967H8.06246L8.68913 6.42634ZM8.68913 1.83301L7.07579 7.16634H2.02246L6.13579 10.1063L4.57579 15.1663L8.68913 12.0397L12.8091 15.1663L11.2425 10.1063L15.3558 7.16634H10.3025L8.68913 1.83301Z" fill="#432D27"/>
</svg>