<svg width="37" height="15" viewBox="0 0 37 16" fill="none" xmlns="http://www.w3.org/2000/svg">
<path d="M19.3909 8.33353C19.3909 8.33353 19.3268 8.34862 19.2165 8.37376C19.1063 8.39387 18.9293 8.42403 18.7318 8.43911C18.3292 8.47431 17.7881 8.44917 17.2624 8.3461C16.7367 8.24806 16.229 8.07209 15.8674 7.90869C15.6853 7.82825 15.5392 7.74781 15.4391 7.69502C15.3391 7.63971 15.2827 7.60452 15.2827 7.60452C15.2006 7.55424 15.1776 7.44866 15.2289 7.37073C15.2725 7.30537 15.3545 7.27772 15.4263 7.29783C15.4263 7.29783 15.6699 7.37073 16.0341 7.47883C16.3982 7.58692 16.8803 7.72016 17.3701 7.8182C17.6138 7.86847 17.86 7.91121 18.0933 7.94137C18.3241 7.97405 18.5421 7.99417 18.7293 8.00673C18.9191 8.0193 19.0652 8.02936 19.1806 8.02684C19.2935 8.02684 19.3601 8.02936 19.3601 8.02936C19.4473 8.03439 19.5166 8.10729 19.5114 8.19276C19.5063 8.26063 19.4576 8.31594 19.3909 8.33353Z" fill="#432D27"/>
<path d="M14.3651 9.08495C14.3625 9.08243 14.3625 9.07992 14.3625 9.07992C14.3625 9.08243 14.3471 9.04472 14.3471 9.01959C14.3394 8.96679 14.3753 8.89641 14.4164 8.87127C14.4574 8.8411 14.4856 8.83859 14.5164 8.83356C14.5446 8.83105 14.5728 8.83105 14.6113 8.84361C14.6446 8.85367 14.7113 8.88887 14.7369 8.97434C14.7497 9.00702 14.7395 9.06483 14.7395 9.05729C14.7344 9.08746 14.7215 9.11511 14.7113 9.13271C14.6856 9.17293 14.6549 9.19807 14.6267 9.21566C14.5779 9.24835 14.5138 9.2584 14.4959 9.26846C14.4651 9.27851 14.4318 9.29108 14.3959 9.30113C14.3215 9.32376 14.2548 9.35644 14.1728 9.38409C13.8445 9.50978 13.4137 9.69832 12.9854 9.90195C12.5572 10.1056 12.134 10.3218 11.8109 10.4826C11.6494 10.5606 11.5135 10.6259 11.4186 10.6737C11.3237 10.7189 11.2673 10.7441 11.2673 10.7441L11.2621 10.7466C11.1749 10.7843 11.0724 10.7441 11.0339 10.6561C11.0031 10.5882 11.0236 10.5103 11.0775 10.4625C11.0775 10.4625 11.2647 10.3016 11.5673 10.0905C11.8699 9.87932 12.2956 9.62794 12.7469 9.41929C12.9726 9.31622 13.206 9.22321 13.4265 9.14779C13.6496 9.07238 13.8625 9.01707 14.0497 8.97936C14.1445 8.96177 14.2369 8.94668 14.3087 8.93914C14.3728 8.93411 14.4754 8.914 14.4497 8.92657C14.4446 8.9316 14.4318 8.93914 14.4215 8.96177C14.4164 8.96931 14.4087 8.9869 14.4061 9.00702C14.4087 8.9869 14.401 9.03467 14.4112 9.05729C14.4318 9.12517 14.4805 9.14528 14.4959 9.1503C14.5164 9.15533 14.5266 9.15533 14.542 9.15533C14.5574 9.15282 14.5728 9.1503 14.6061 9.13019C14.6369 9.11008 14.6703 9.05226 14.6626 9.0045C14.6626 8.98439 14.6472 8.9492 14.6472 8.95422C14.6472 8.95674 14.6472 8.95674 14.6472 8.95674C14.6472 8.95925 14.6472 8.95925 14.6472 8.95925C14.6779 9.0397 14.6369 9.12768 14.5549 9.16036C14.483 9.18801 14.4036 9.15785 14.3651 9.09751V9.08495Z" fill="#432D27"/>
<path d="M15.1454 7.55649C14.0581 7.76262 12.8964 7.38303 12.0706 6.66156C11.2423 5.94008 10.7346 4.90689 10.5474 3.83599C11.5141 3.84102 12.4912 4.03962 13.3426 4.48708C14.1965 4.93455 14.9197 5.64094 15.3044 6.51324C15.4557 6.85764 15.5352 7.30762 15.2633 7.57157" fill="#432D27"/>
<path d="M15.1633 7.66935L14.9582 7.69951L14.7402 7.71711C14.5966 7.72214 14.453 7.71962 14.3119 7.71208C14.1709 7.69951 14.0273 7.68443 13.8888 7.65929C13.7478 7.63164 13.6093 7.59896 13.4734 7.55874C13.2015 7.47578 12.9374 7.36517 12.6887 7.23194C12.5656 7.16406 12.4425 7.08865 12.3271 7.01072C12.2091 6.92776 12.1014 6.84481 11.9886 6.74928C11.886 6.6613 11.786 6.56326 11.6834 6.46019C11.586 6.35963 11.4911 6.25405 11.4013 6.14344C11.2244 5.92474 11.0679 5.69095 10.9295 5.44459C10.6602 4.95188 10.4602 4.42146 10.3473 3.86841C10.3268 3.76283 10.3961 3.65976 10.5038 3.63965C10.514 3.63714 10.5269 3.63714 10.5371 3.63462H10.5499C11.1449 3.61954 11.7475 3.67987 12.3348 3.82316C12.6297 3.89355 12.9143 3.9941 13.1939 4.11728C13.2631 4.14745 13.3323 4.18013 13.4016 4.21281L13.499 4.26811L13.5939 4.3209C13.7247 4.3938 13.8606 4.47927 13.9837 4.56223C14.4863 4.90411 14.9223 5.34907 15.2326 5.87195C15.3095 6.00267 15.3762 6.13841 15.4377 6.27668C15.4659 6.34204 15.4993 6.42248 15.5198 6.48784C15.5454 6.56326 15.5685 6.64118 15.5839 6.71911C15.6147 6.87497 15.6249 7.04089 15.5941 7.2068C15.5685 7.37271 15.7407 7.38136 15.5026 7.5336C15.4079 7.54114 15.2536 7.65929 15.1633 7.66935C15.13 7.62661 15.1428 7.5336 15.1736 7.49338L15.1761 7.48835C15.3121 7.30484 15.2864 7.05597 15.1992 6.81967C15.1787 6.75934 15.1531 6.70403 15.1249 6.64621C15.0941 6.57834 15.0607 6.53309 15.03 6.47024C14.9633 6.35461 14.8915 6.23897 14.8146 6.13087C14.6607 5.90966 14.4838 5.70855 14.294 5.51749C14.1017 5.32896 13.8914 5.15801 13.6708 5.00216C13.558 4.92423 13.4477 4.85384 13.3298 4.78596L13.2349 4.73317L13.1477 4.68792C13.0887 4.65524 13.0272 4.62508 12.9656 4.59743C12.7194 4.47927 12.4604 4.38626 12.1963 4.30331C11.668 4.13991 11.109 4.05946 10.5474 4.03684L10.75 3.80305C10.8243 4.3209 10.9705 4.83373 11.2064 5.30633C11.3244 5.54263 11.4603 5.77139 11.6193 5.98256C11.6988 6.08814 11.7834 6.19121 11.8706 6.29176C11.9578 6.38729 12.0527 6.4803 12.1553 6.57331C12.2501 6.65627 12.3579 6.74174 12.4656 6.81967C12.5758 6.8976 12.6861 6.96798 12.8041 7.03586C12.922 7.10122 13.04 7.16155 13.1631 7.21434C13.2862 7.26462 13.4118 7.31238 13.54 7.3526C13.6683 7.39031 13.7991 7.42299 13.9298 7.44813C14.0632 7.47075 14.194 7.48835 14.3299 7.49841C14.4632 7.50595 14.5966 7.50343 14.7299 7.49589L14.9248 7.47578L15.13 7.44059C15.1941 7.43053 15.2531 7.47075 15.2659 7.5336C15.271 7.59896 15.2274 7.65929 15.1633 7.66935Z" fill="#432D27"/>
<path d="M11.28 10.4415C12.0057 13.0182 8.495 13.6064 6.81787 14.2852C7.09996 12.6285 7.82569 10.4214 9.75156 10.0267C10.3388 9.90603 10.8235 10.0267 11.1928 10.4792C11.1671 10.449 11.1415 10.4163 11.1133 10.3862" fill="#432D27"/>
<path d="M11.393 10.4161C11.4237 10.5468 11.4545 10.68 11.4699 10.8284C11.4853 10.9716 11.4904 11.1124 11.4776 11.2557C11.4673 11.399 11.4391 11.5398 11.3981 11.678C11.3571 11.8163 11.2955 11.947 11.2263 12.0727C10.9314 12.573 10.4569 12.9249 9.96971 13.1989C9.47477 13.4704 8.95676 13.6866 8.43618 13.8802C7.91561 14.0737 7.38734 14.2497 6.89497 14.4659C6.79496 14.5086 6.67956 14.4659 6.63596 14.3678C6.62058 14.3352 6.61545 14.2975 6.62058 14.2648L6.62314 14.2547C6.70777 13.664 6.83086 13.0757 7.02575 12.5026C7.1232 12.216 7.2386 11.9319 7.38477 11.6579C7.45145 11.5197 7.53864 11.3889 7.61813 11.2532C7.71045 11.1275 7.79508 10.9943 7.90022 10.8736C8.0028 10.7529 8.10794 10.6323 8.22847 10.5267C8.3413 10.4111 8.47978 10.3231 8.608 10.225C8.74648 10.1421 8.88496 10.0516 9.03882 9.99124C9.19012 9.93091 9.34142 9.86806 9.50298 9.83538C9.58248 9.81527 9.65941 9.79516 9.74404 9.78259C9.81071 9.77254 9.90816 9.76248 9.99022 9.75997C10.1569 9.75243 10.3313 9.76751 10.5005 9.81276C10.8416 9.90074 11.1263 10.1345 11.2981 10.3985L11.3135 10.4236C11.3519 10.484 11.334 10.5619 11.275 10.5996C11.2134 10.6373 11.134 10.6197 11.0955 10.5619L11.0288 10.4613C10.9929 10.4085 11.0083 10.3356 11.0621 10.3004C11.1083 10.2703 11.1699 10.2778 11.2083 10.313L11.2981 10.396L11.0955 10.5594C10.9955 10.4638 10.8903 10.3809 10.7749 10.3231C10.6595 10.2653 10.539 10.2275 10.4159 10.2099C10.2903 10.1949 10.162 10.1999 10.0338 10.215C9.96714 10.225 9.91585 10.2351 9.83636 10.2527C9.77481 10.2678 9.70813 10.2954 9.64402 10.313C9.51067 10.3457 9.39015 10.406 9.26962 10.4613C9.14909 10.5191 9.03626 10.5921 8.92342 10.665C8.81828 10.7479 8.70545 10.8233 8.61056 10.9214C8.50799 11.0094 8.41567 11.1099 8.32848 11.2155C8.23616 11.316 8.16179 11.4342 8.07973 11.5448C8.01049 11.6655 7.92587 11.7761 7.86175 11.9018C7.72328 12.1456 7.61044 12.4045 7.50017 12.666C7.28732 13.1939 7.14115 13.752 7.02063 14.3176L6.7488 14.1064C7.28476 13.9128 7.81816 13.7721 8.3413 13.6011C8.86188 13.4302 9.38245 13.2517 9.85944 12.9953C10.0979 12.8671 10.3262 12.7263 10.5313 12.5579C10.6339 12.4749 10.7288 12.3844 10.8185 12.2864C10.9057 12.1883 10.9801 12.0828 11.0468 11.9722C11.175 11.7484 11.2545 11.4995 11.2699 11.2431C11.2801 11.1149 11.2724 10.9842 11.257 10.8585C11.2442 10.7353 11.2109 10.6021 11.175 10.4714C11.1596 10.4111 11.1981 10.3482 11.2596 10.3331C11.3212 10.318 11.3853 10.3557 11.4007 10.4161C11.393 10.4111 11.393 10.4136 11.393 10.4161Z" fill="#432D27"/>
<path d="M32.5132 8.57789C32.5132 8.57789 32.4901 8.62566 32.4414 8.71616C32.4029 8.80414 32.3414 8.92983 32.308 9.1058C32.2773 9.27926 32.2824 9.48791 32.4388 9.69153C32.5132 9.79208 32.626 9.90018 32.7414 10.0032C32.8568 10.1038 32.9902 10.1692 33.1543 10.2044C33.48 10.2722 33.8903 10.1792 34.2262 9.93537C34.3108 9.87504 34.3878 9.80214 34.4545 9.72169C34.4878 9.68399 34.5237 9.63371 34.5468 9.59851C34.575 9.54824 34.6134 9.49042 34.6288 9.44517C34.7211 9.25412 34.7724 9.01782 34.7673 8.779C34.7596 8.29886 34.5493 7.78603 34.1313 7.42655C33.7185 7.06204 33.1363 6.83831 32.5183 6.79809C31.908 6.75787 31.2233 6.89613 30.7437 7.32348C30.2514 7.75335 30.1206 8.4698 30.2642 9.14602C30.2975 9.31696 30.3539 9.47785 30.4206 9.65131C30.4873 9.80717 30.5668 9.96805 30.6642 10.1189C30.8566 10.4231 31.0976 10.7021 31.3874 10.9334C31.6746 11.1646 32.0029 11.3557 32.3568 11.4889C32.7081 11.6196 33.0953 11.685 33.4774 11.6925C34.2467 11.7051 35.0391 11.4613 35.6315 10.956C35.9264 10.7096 36.1777 10.3879 36.3496 10.0535C36.4829 9.72672 36.5444 9.30942 36.5547 8.91475C36.5727 8.11786 36.3932 7.30086 35.9675 6.62715C35.5495 5.94589 34.8725 5.45067 34.1006 5.18923C33.3287 4.91522 32.4875 4.86745 31.6387 4.87751C31.2105 4.88756 30.7848 4.90014 30.3591 4.91019C29.9206 4.92779 29.5256 4.95795 29.1179 5.02834C27.4818 5.28978 25.9457 5.92578 24.466 6.56179C23.7249 6.88105 22.9966 7.20533 22.2683 7.50448C21.8888 7.65028 21.5503 7.79106 21.1759 7.91675C20.9913 7.9796 20.8092 8.04244 20.6245 8.10529C20.4425 8.16059 20.2604 8.2159 20.0783 8.26869C18.6294 8.69102 17.2164 8.93989 15.9035 9.05552C14.5905 9.1787 13.3801 9.16362 12.3158 9.09574C11.2516 9.01782 10.3284 8.89464 9.57959 8.74381C8.83078 8.59549 8.2461 8.46477 7.85374 8.34913C7.46139 8.24104 7.2511 8.18322 7.2511 8.18322C7.1716 8.16059 7.12545 8.08015 7.14853 8.00474C7.16904 7.93183 7.24597 7.88658 7.32034 7.90167L7.32803 7.90418C7.32803 7.90418 7.53832 7.94692 7.9358 8.02485C8.33072 8.1078 8.91285 8.21087 9.65653 8.31394C10.4002 8.41198 11.308 8.50499 12.3492 8.54773C13.3903 8.57789 14.5674 8.54521 15.8419 8.41198C17.1139 8.2712 18.4833 8.02987 19.8834 7.61258C20.0578 7.55979 20.2347 7.50951 20.4117 7.45672C20.5861 7.3989 20.7605 7.34108 20.9374 7.28075C21.2862 7.16763 21.6606 7.01428 22.0093 6.88356C22.7248 6.59698 23.4505 6.27772 24.1993 5.95846C25.6893 5.32749 27.2818 4.6764 29.0281 4.43256C29.4615 4.36469 29.9206 4.33703 30.3386 4.32949C30.7719 4.32446 31.2053 4.32195 31.6387 4.31692C32.5081 4.31944 33.4287 4.38228 34.2852 4.70405C34.7135 4.86243 35.1238 5.07862 35.4853 5.36268C35.8495 5.64423 36.1495 5.99869 36.3855 6.38331C36.8573 7.1626 37.0291 8.06507 36.9958 8.93235C36.9881 9.15105 36.9625 9.36724 36.9214 9.58343C36.8778 9.80214 36.8291 10.0058 36.7291 10.2345C36.5162 10.6367 36.2367 10.9761 35.8931 11.2577C35.2084 11.8208 34.3185 12.0772 33.4697 12.052C33.0415 12.0369 32.626 11.959 32.2337 11.8082C31.8439 11.6548 31.4874 11.4412 31.1771 11.1822C30.8643 10.9233 30.6053 10.6166 30.395 10.2848C30.2898 10.1189 30.2026 9.94291 30.1257 9.7594C30.059 9.58595 29.9924 9.39992 29.959 9.21138C29.8821 8.83682 29.877 8.44717 29.9667 8.07512C30.0129 7.8891 30.0796 7.71564 30.1821 7.54219C30.2078 7.49694 30.2309 7.46677 30.2565 7.42906C30.2847 7.38382 30.3155 7.35114 30.3437 7.31343C30.4052 7.24053 30.4693 7.17265 30.5411 7.10981C31.1156 6.60704 31.8721 6.47129 32.5414 6.51402C33.2158 6.56179 33.8569 6.80814 34.3237 7.22293C34.7981 7.6352 35.0443 8.22847 35.0468 8.779C35.0494 9.05804 34.9955 9.3245 34.875 9.57086C34.8468 9.63874 34.816 9.67896 34.7853 9.73426C34.7442 9.79962 34.7083 9.84487 34.6673 9.89515C34.5827 9.99319 34.4904 10.0787 34.3903 10.1516C33.9929 10.4407 33.5184 10.5563 33.1004 10.4758C32.8927 10.4381 32.6953 10.3376 32.5593 10.2194C32.4234 10.1013 32.308 9.99319 32.208 9.85995C32.108 9.73175 32.0439 9.58092 32.0183 9.44014C31.9926 9.29685 32.0054 9.16865 32.0208 9.06055C32.0593 8.84436 32.1337 8.69102 32.1772 8.59046C32.2234 8.49745 32.2465 8.44969 32.2465 8.44969C32.308 8.28369 32.9192 7.75049 32.9894 8.07512C32.9894 8.12749 32.6642 8.25049 32.5132 8.57789Z" fill="#432D27"/>
<path d="M30.4157 4.73273C30.4157 4.73273 30.2131 4.75284 29.8592 4.78552C29.5053 4.82323 29.0001 4.88105 28.3872 4.93133C27.7744 4.98412 27.0563 5.01177 26.287 4.97909C25.5177 4.94892 24.6996 4.84837 23.8969 4.6724C23.4969 4.57939 23.0969 4.48638 22.7122 4.36571C22.325 4.25259 21.9506 4.11684 21.589 3.98361C21.23 3.84283 20.8889 3.69954 20.5683 3.55374C20.2503 3.40542 19.9503 3.25962 19.6785 3.11633C19.1348 2.83226 18.6937 2.57082 18.3886 2.3848C18.086 2.19626 17.9116 2.08817 17.9116 2.08817C17.8218 2.03286 17.7962 1.91471 17.8526 1.82673C17.909 1.73874 18.0296 1.7136 18.1193 1.76891C18.1193 1.76891 18.1219 1.76891 18.1219 1.77142L18.127 1.77393C18.127 1.77393 18.2963 1.88454 18.5886 2.0756C18.8835 2.26413 19.3118 2.5306 19.84 2.81969C20.1042 2.9655 20.394 3.11633 20.7042 3.26716C21.0171 3.41548 21.3479 3.56631 21.6967 3.71211C22.048 3.85037 22.4122 3.99115 22.7891 4.11181C23.1661 4.2375 23.5559 4.34309 23.9482 4.4361C24.7355 4.61709 25.5382 4.72519 26.2947 4.7629C27.0512 4.80061 27.7615 4.76793 28.3667 4.72016C28.9719 4.66989 29.4771 4.60201 29.831 4.5643C30.1875 4.5266 30.3901 4.50397 30.3901 4.50397C30.4542 4.49643 30.5131 4.54168 30.5183 4.60453C30.526 4.66737 30.4798 4.72519 30.4157 4.73022V4.73273Z" fill="#432D27"/>
<path d="M23.9921 4.70031C23.7869 4.73299 23.5766 4.76064 23.3612 4.78326C23.1484 4.80338 22.9381 4.81594 22.7252 4.82349C22.2995 4.83605 21.8764 4.82851 21.4533 4.79081C20.607 4.7179 19.771 4.54445 18.9658 4.2805C18.7658 4.21262 18.5658 4.14223 18.3683 4.0643C18.1708 3.98637 17.9759 3.90593 17.781 3.82046C17.3938 3.64701 17.0168 3.45092 16.6553 3.23222C15.9295 2.7923 15.2525 2.26942 14.6653 1.65352C14.5935 1.57811 14.596 1.45744 14.673 1.38706C14.6909 1.36946 14.714 1.35689 14.7371 1.34683L14.7448 1.34432C15.6218 1.03009 16.5245 0.753566 17.4682 0.602736C17.7041 0.565028 17.94 0.537376 18.1811 0.517266C18.4196 0.502182 18.6606 0.49464 18.9017 0.502181C19.3838 0.51475 19.8685 0.577598 20.3403 0.70329C20.5711 0.761108 20.8122 0.844066 21.0327 0.93205C21.2558 1.02506 21.4738 1.13064 21.6841 1.24628C22.1047 1.47756 22.4996 1.74402 22.8663 2.05825C23.2304 2.375 23.5535 2.75459 23.769 3.19451C23.8792 3.4107 23.9536 3.64198 24.01 3.87577C24.0664 4.10955 24.0946 4.34586 24.0921 4.58467C24.0921 4.64752 24.0382 4.70031 23.9741 4.69779C23.9151 4.69779 23.869 4.65506 23.8587 4.60227V4.59975C23.8228 4.38356 23.769 4.16989 23.6972 3.96626C23.6228 3.76264 23.5253 3.56908 23.4151 3.38305C23.192 3.01854 22.8894 2.7018 22.5457 2.43282C22.2021 2.16132 21.8149 1.92502 21.4251 1.71386C21.2276 1.61079 21.0276 1.51526 20.8224 1.43231C20.6147 1.34683 20.4173 1.27393 20.1967 1.21611C19.7736 1.09796 19.33 1.03512 18.8863 1.01752C18.4401 1.00244 17.9913 1.02758 17.5426 1.08288C16.6424 1.196 15.7552 1.43482 14.8756 1.70631L14.9576 1.39711C15.0935 1.54794 15.232 1.69626 15.3782 1.83955C15.5244 1.98032 15.6757 2.11859 15.8295 2.25182C16.1424 2.51577 16.4732 2.75962 16.8194 2.98083C17.1656 3.20205 17.5272 3.40316 17.899 3.58416C18.2708 3.76516 18.6555 3.9185 19.0479 4.05173C19.8326 4.31569 20.6506 4.49417 21.4789 4.5721C21.8918 4.60981 22.3098 4.62741 22.7227 4.60981C22.9304 4.59975 23.1381 4.58467 23.3433 4.56456C23.5459 4.54193 23.751 4.51177 23.9613 4.47658C24.0254 4.46652 24.0844 4.50674 24.0972 4.56959C24.1075 4.63243 24.0664 4.69025 24.0023 4.70282L23.9921 4.70031Z" fill="#432D27"/>
<path d="M25.6663 5.95478C25.6663 5.95478 25.5791 6.05282 25.4278 6.22376C25.2816 6.39471 25.0893 6.6486 24.8636 6.96786C24.6508 7.29215 24.3994 7.66923 24.1686 8.09407C24.0507 8.30523 23.9302 8.52394 23.8122 8.75018C23.6942 8.97643 23.5865 9.21022 23.4737 9.44149C23.3685 9.67779 23.2506 9.90655 23.1506 10.1403C23.0454 10.3716 22.9429 10.5979 22.8454 10.8191C22.6454 11.2565 22.4684 11.6688 22.3043 12.0157C22.2299 12.1916 22.1453 12.3475 22.0838 12.4908C22.0145 12.6316 21.9556 12.7547 21.9068 12.8553C21.8119 13.0589 21.7478 13.172 21.7478 13.172L21.7453 13.1771C21.7119 13.2324 21.6401 13.2525 21.5837 13.2223C21.5427 13.1997 21.5196 13.157 21.5222 13.1117C21.5222 13.1117 21.5324 12.9785 21.5709 12.7497C21.6119 12.521 21.6914 12.1992 21.8222 11.8271C21.953 11.4551 22.1376 11.0353 22.3582 10.5953C22.4659 10.3741 22.5864 10.1504 22.7146 9.92666C22.8403 9.70042 22.9736 9.47668 23.107 9.25044C23.2455 9.02922 23.3814 8.80297 23.5224 8.5893C23.6583 8.37059 23.7942 8.15691 23.9302 7.95329C24.0661 7.74967 24.1969 7.55108 24.3225 7.36505C24.4507 7.18154 24.5738 7.00557 24.6867 6.84468C24.8046 6.68631 24.9046 6.53799 25.0046 6.4123C25.1021 6.2841 25.1893 6.17349 25.2611 6.08299C25.4073 5.90702 25.4893 5.80647 25.4893 5.80647C25.5304 5.75619 25.6047 5.75116 25.6534 5.78887C25.7047 5.82909 25.7099 5.90199 25.6714 5.94976C25.6688 5.95227 25.6663 5.95478 25.6663 5.95478Z" fill="#432D27"/>
<path d="M24.6072 7.31799C24.6406 7.51659 24.6919 7.70764 24.7072 7.91629C24.7175 8.01936 24.7303 8.12243 24.738 8.22549L24.7457 8.53218C24.756 8.7358 24.738 8.93943 24.7354 9.14305C24.7149 9.34667 24.7047 9.55029 24.6713 9.7514C24.638 9.95251 24.6124 10.1536 24.5636 10.3522C24.5252 10.5533 24.4713 10.7494 24.4123 10.9455C24.361 11.1441 24.2841 11.3326 24.22 11.5262C24.1482 11.7172 24.0636 11.9058 23.9815 12.0918C23.8841 12.2728 23.802 12.4613 23.6917 12.6348L23.5327 12.9012L23.3532 13.1551C23.2404 13.3286 23.0917 13.4794 22.9609 13.6403C22.8891 13.7157 22.8096 13.7861 22.7352 13.859C22.6608 13.9344 22.5813 14.0023 22.4941 14.0652L22.2377 14.2562C22.1531 14.3115 22.0633 14.3693 21.9761 14.4221L21.4504 14.7389C21.1068 14.9475 20.7786 15.1662 20.517 15.4377C20.44 15.5182 20.3118 15.5207 20.2298 15.4453C20.199 15.4176 20.1785 15.3799 20.1708 15.3422C20.1246 15.1361 20.0682 14.9299 20.0374 14.7213C19.9964 14.5126 19.9708 14.3015 19.9477 14.0903C19.9246 13.8791 19.9118 13.668 19.9041 13.4543C19.9015 13.2406 19.8964 13.0295 19.9092 12.8158C19.9118 12.6021 19.94 12.3909 19.9631 12.1773C19.999 11.9661 20.0246 11.7524 20.0785 11.5438L20.1528 11.2295L20.2477 10.9203C20.3093 10.7142 20.3965 10.5131 20.4759 10.312C20.5708 10.1159 20.658 9.91731 20.7786 9.73129C20.8837 9.54024 21.0222 9.36678 21.1478 9.1883C21.294 9.02238 21.4299 8.84893 21.5966 8.70312C21.6787 8.62771 21.753 8.55229 21.8428 8.47939C21.9274 8.41403 21.9992 8.34616 22.0915 8.28331C22.448 8.01936 22.8198 7.79311 23.2301 7.6272C23.4327 7.54424 23.643 7.47888 23.8482 7.42106C24.0533 7.36073 24.2636 7.31799 24.4303 7.24761L24.4405 7.24258C24.4995 7.21744 24.5688 7.24258 24.5944 7.3004C24.6175 7.35319 24.5995 7.41101 24.5534 7.44117C24.3508 7.57441 24.1482 7.63977 23.9559 7.72021C23.7635 7.79814 23.5789 7.88612 23.4019 7.98165C23.2224 8.07466 23.0506 8.18024 22.8865 8.29588C22.7198 8.40649 22.5583 8.53218 22.4095 8.65788C22.3352 8.71821 22.2531 8.79362 22.1762 8.8615C22.1044 8.92434 22.0377 8.99976 21.9684 9.06763C21.8223 9.20087 21.7094 9.36427 21.5812 9.51258C21.4709 9.67598 21.3479 9.83184 21.2555 10.0053C21.153 10.1737 21.0658 10.3522 20.9786 10.5307C20.9016 10.7142 20.8196 10.8952 20.7606 11.0837L20.6683 11.3678L20.5965 11.6569C20.5452 11.8505 20.517 12.0491 20.4811 12.2451C20.458 12.4437 20.4272 12.6423 20.417 12.8434C20.3965 13.0445 20.3939 13.2456 20.3913 13.4468C20.3913 13.6479 20.3965 13.849 20.4093 14.0501C20.4247 14.2512 20.44 14.4523 20.4734 14.6534C20.4965 14.8545 20.5401 15.0531 20.5734 15.2517L20.2272 15.1562C20.5452 14.8545 20.9119 14.6358 21.2735 14.4397L21.8094 14.1481C21.8966 14.0978 21.9813 14.0501 22.0685 13.9948L22.3069 13.8263C22.389 13.7736 22.4634 13.7107 22.5352 13.6428C22.607 13.5775 22.6839 13.5146 22.7532 13.4442C22.8814 13.2959 23.0275 13.1602 23.1378 12.9968L23.3148 12.7605L23.4738 12.5091C23.5866 12.3457 23.6635 12.1622 23.761 11.9887C23.843 11.8077 23.9251 11.6267 23.9969 11.4432C24.061 11.2572 24.1379 11.0737 24.1892 10.8801C24.2482 10.6916 24.2995 10.5005 24.3405 10.3044C24.3893 10.1109 24.4175 9.9148 24.4508 9.72123C24.4841 9.52515 24.4944 9.32656 24.5175 9.13048C24.52 8.93188 24.5431 8.73581 24.5277 8.53721L24.5149 8.24058C24.5072 8.14254 24.4918 8.04701 24.4816 7.94897C24.4662 7.75792 24.4123 7.55681 24.3764 7.36073V7.3557C24.3662 7.29286 24.4072 7.23252 24.4713 7.22247C24.5329 7.21241 24.5944 7.25515 24.6072 7.31799C24.6047 7.31799 24.6047 7.31799 24.6072 7.31799Z" fill="#432D27"/>
<path d="M15.3007 7.55143C15.3007 7.55143 15.2443 7.52127 15.1468 7.4735C15.0494 7.42323 14.9006 7.35535 14.734 7.26485C14.5596 7.18441 14.3672 7.0738 14.1518 6.96571C13.9415 6.85007 13.7108 6.73192 13.4876 6.60371C13.2671 6.46796 13.0466 6.33221 12.8568 6.17636C12.6696 6.02301 12.5003 5.86715 12.3824 5.71381C12.1311 5.41466 12.0618 5.14317 12.0618 5.14317C12.0439 5.07529 12.0849 5.00742 12.1541 4.98982C12.1849 4.98228 12.2157 4.98479 12.2413 4.99736L12.2465 4.99988C12.2465 4.99988 12.3106 5.03004 12.4029 5.09037C12.4978 5.15071 12.6234 5.24372 12.7619 5.36187C12.903 5.48002 13.0543 5.62582 13.2209 5.78168C13.3876 5.93754 13.5594 6.111 13.7441 6.27691C13.9262 6.44282 14.1159 6.60371 14.3057 6.73946C14.4955 6.87521 14.6827 6.98582 14.8442 7.07883C15.1699 7.25731 15.4084 7.34781 15.4084 7.34781C15.4699 7.37043 15.4982 7.43831 15.4751 7.49613C15.452 7.55646 15.3828 7.58411 15.3238 7.56149C15.3135 7.55646 15.3058 7.55395 15.3007 7.55143Z" fill="white"/>
<path d="M11.2338 10.7016C11.2338 10.7016 11.0492 10.8021 10.7979 10.9781C10.6722 11.0686 10.5286 11.1767 10.3824 11.3049C10.2337 11.4306 10.0875 11.5739 9.94393 11.7222C9.80032 11.868 9.65671 12.0163 9.51823 12.1445C9.37719 12.2727 9.24897 12.3934 9.12588 12.4839C9.00279 12.5744 8.88995 12.6397 8.80276 12.68C8.71814 12.7227 8.66172 12.7378 8.66172 12.7378H8.65915C8.58735 12.7579 8.51555 12.7202 8.49247 12.6498C8.48477 12.6272 8.48477 12.602 8.4899 12.5794C8.4899 12.5794 8.50529 12.5216 8.54632 12.4361C8.58735 12.3481 8.65915 12.2325 8.7643 12.1118C8.86687 11.9912 9.00791 11.868 9.16434 11.7473C9.32077 11.6241 9.50028 11.511 9.68236 11.4029C9.86443 11.2948 10.0465 11.1892 10.2183 11.0887C10.3876 10.9881 10.5414 10.8876 10.6722 10.8046C10.9364 10.6337 11.103 10.5105 11.103 10.5105L11.1056 10.508C11.1569 10.4703 11.2313 10.4803 11.2697 10.5331C11.3082 10.5859 11.2979 10.6563 11.2441 10.694C11.2415 10.6965 11.2364 10.699 11.2338 10.7016Z" fill="white"/>
<path d="M7.29219 8.2102C7.28581 8.22952 7.28732 8.23744 7.27591 8.26865C7.26493 8.29739 7.2544 8.32366 7.24192 8.34449C7.21935 8.3891 7.18872 8.42978 7.15615 8.46503C7.091 8.53551 7.01673 8.59167 6.94185 8.63496C6.79162 8.72401 6.62732 8.77748 6.48701 8.8274C6.33493 8.87786 6.17762 8.92486 6.02164 8.96444C5.86327 9.00106 5.70578 9.03272 5.5444 9.05351C4.90126 9.13961 4.22393 9.12287 3.5773 8.95062C3.41565 8.90756 3.25532 8.85706 3.09915 8.79963C3.00875 8.76625 2.94953 8.73822 2.8733 8.70727C2.79796 8.67136 2.71695 8.63449 2.64445 8.59907C2.35335 8.44702 2.07473 8.27414 1.81665 8.08436C1.30049 7.70482 0.847884 7.28004 0.411836 6.86065C0.272212 6.72694 0.279271 6.52398 0.425859 6.40623C0.446395 6.38934 0.469322 6.37541 0.491806 6.36396L0.511017 6.35449C0.651591 6.28675 0.787383 6.21308 0.931854 6.15621C1.07438 6.09391 1.22407 6.04049 1.37288 5.99202C1.52213 5.94108 1.67767 5.90398 1.83082 5.86392C1.98874 5.82978 2.14384 5.79515 2.30239 5.77388C2.62038 5.72638 2.94722 5.71103 3.27424 5.71102C3.43687 5.71597 3.60188 5.72388 3.76513 5.74169C3.92926 5.75456 4.0903 5.78475 4.25266 5.80752C4.41325 5.84019 4.57429 5.87039 4.73223 5.91792C4.89105 5.9605 5.04571 6.01001 5.19949 6.06449C5.35371 6.11648 5.50112 6.19028 5.64986 6.25664C5.79399 6.33243 5.93945 6.40078 6.07526 6.49045C6.35149 6.66037 6.62019 6.87238 6.82313 7.14201C6.91698 7.27042 7.00358 7.4231 7.05556 7.55707C7.11233 7.69698 7.15209 7.83396 7.18008 7.97147C7.20249 8.07485 7.12726 8.16913 7.01058 8.18483C6.924 8.19548 6.84255 8.16109 6.79518 8.09936L6.79562 8.09688C6.71045 7.98528 6.63049 7.87713 6.54594 7.77839C6.45899 7.6767 6.38267 7.59724 6.28564 7.51933C6.10245 7.36794 5.88147 7.24834 5.64173 7.13572C5.39543 7.02709 5.14453 6.92787 4.88399 6.84997C4.75438 6.8073 4.62671 6.77007 4.49206 6.7393C4.36157 6.70159 4.22426 6.68567 4.09288 6.65291C3.95929 6.63253 3.82419 6.60424 3.68883 6.59376C3.5548 6.57586 3.41572 6.56984 3.27992 6.56184C3.00787 6.54832 2.73317 6.54965 2.4621 6.57969C2.32648 6.58703 2.19148 6.60724 2.05692 6.62497C1.92431 6.64815 1.78886 6.67083 1.65776 6.70192C1.52665 6.73301 1.3951 6.76657 1.27028 6.8115C1.14113 6.84803 1.0202 6.90383 0.892553 6.94827L0.988456 6.44411C1.37254 6.89286 1.74857 7.33767 2.18559 7.71895C2.40596 7.90735 2.6342 8.08434 2.88847 8.23008L3.07439 8.33345C3.14168 8.36542 3.2218 8.40724 3.27908 8.42984C3.4117 8.48833 3.55131 8.54037 3.6927 8.58251C3.83408 8.62464 3.97963 8.65984 4.12694 8.68513C4.27381 8.71289 4.42245 8.73075 4.57242 8.74118C4.87191 8.76452 5.17388 8.75766 5.47026 8.71666C5.76337 8.67766 6.05896 8.60845 6.32692 8.51408C6.47422 8.4577 6.60187 8.41326 6.70757 8.34463C6.81609 8.27649 6.87425 8.21246 6.88406 8.12483C6.89609 8.02481 6.99656 7.95273 7.11077 7.96723C7.22497 7.98173 7.31085 8.07304 7.29882 8.17306C7.29705 8.18296 7.29573 8.19039 7.29396 8.20029L7.29219 8.2102Z" fill="#432D27"/>
<path d="M6.92911 8.03195C6.92911 8.03195 6.93771 8.00025 6.95446 7.93932C6.97736 7.8769 6.98955 7.79222 7.0011 7.69467C7.01399 7.5897 7.0142 7.45702 6.99712 7.30607C6.97106 7.15613 6.93713 6.98442 6.86048 6.80537C6.78054 6.62831 6.67299 6.44141 6.53474 6.262C6.39409 6.07962 6.21616 5.90872 6.00531 5.75768C5.79775 5.60465 5.55989 5.4898 5.2924 5.39284C5.04309 5.30921 4.76042 5.24793 4.48625 5.22128C3.9322 5.167 3.3806 5.23054 2.89269 5.3484C2.77274 5.37885 2.65235 5.41178 2.54007 5.44865C2.48677 5.46758 2.42164 5.48702 2.37777 5.50246C2.31505 5.52487 2.25473 5.55024 2.21327 5.56865C2.01718 5.64728 1.82699 5.74223 1.6699 5.83266C1.50952 5.92508 1.36996 6.01597 1.25934 6.10927C1.14105 6.19615 1.05695 6.28891 0.984933 6.36331C0.845715 6.51806 0.776052 6.6286 0.776052 6.6286L0.76441 6.64447C0.707718 6.73172 0.579223 6.7607 0.474313 6.70696C0.407074 6.67245 0.365527 6.60917 0.36519 6.54531C0.36519 6.54531 0.363279 6.5067 0.361863 6.43245C0.360447 6.35819 0.368072 6.24976 0.406645 6.11602C0.442369 5.98179 0.509042 5.82224 0.620214 5.66013C0.733793 5.50098 0.884653 5.33036 1.07933 5.17748C1.274 5.02459 1.50349 4.89045 1.77636 4.77651C1.8494 4.74566 1.90883 4.72524 1.97156 4.70283C2.0503 4.67296 2.11499 4.65599 2.18955 4.63306C2.33495 4.59166 2.48319 4.55076 2.63777 4.5237C3.25544 4.40259 3.95488 4.41547 4.61353 4.57448C4.94571 4.65447 5.25745 4.76668 5.55597 4.92001C5.83917 5.06051 6.10871 5.24459 6.33527 5.43916C6.78466 5.83276 7.08555 6.2851 7.23482 6.69864C7.31845 6.9044 7.35978 7.10036 7.38756 7.27356C7.40591 7.45026 7.41115 7.60173 7.40284 7.73046C7.39703 7.79582 7.38927 7.85573 7.38327 7.90575C7.37531 7.95032 7.36823 7.98994 7.36248 8.02213C7.35142 8.08403 7.34567 8.11622 7.34567 8.11622C7.32798 8.21527 7.21981 8.27837 7.10586 8.2588C6.99191 8.23924 6.91534 8.14188 6.93304 8.04283C6.92734 8.04186 6.92822 8.0369 6.92911 8.03195Z" fill="#432D27"/>
</svg>
