<svg width="37" height="15" viewBox="0 0 37 16" fill="none" xmlns="http://www.w3.org/2000/svg">
<path d="M17.6091 8.33353C17.6091 8.33353 17.6732 8.34862 17.7835 8.37376C17.8937 8.39387 18.0707 8.42403 18.2682 8.43911C18.6708 8.47431 19.2119 8.44917 19.7376 8.3461C20.2633 8.24806 20.771 8.07209 21.1326 7.90869C21.3147 7.82825 21.4608 7.74781 21.5609 7.69502C21.6609 7.63971 21.7173 7.60452 21.7173 7.60452C21.7994 7.55424 21.8224 7.44866 21.7711 7.37073C21.7275 7.30537 21.6455 7.27772 21.5737 7.29783C21.5737 7.29783 21.3301 7.37073 20.9659 7.47883C20.6018 7.58692 20.1197 7.72016 19.6299 7.8182C19.3862 7.86847 19.14 7.91121 18.9067 7.94137C18.6759 7.97405 18.4579 7.99417 18.2707 8.00673C18.0809 8.0193 17.9348 8.02936 17.8194 8.02684C17.7065 8.02684 17.6399 8.02936 17.6399 8.02936C17.5527 8.03439 17.4834 8.10729 17.4886 8.19276C17.4937 8.26063 17.5424 8.31594 17.6091 8.33353Z" fill="#432D27"/>
<path d="M22.6349 9.08495C22.6375 9.08243 22.6375 9.07992 22.6375 9.07992C22.6375 9.08243 22.6529 9.04472 22.6529 9.01959C22.6606 8.96679 22.6247 8.89641 22.5836 8.87127C22.5426 8.8411 22.5144 8.83859 22.4836 8.83356C22.4554 8.83105 22.4272 8.83105 22.3887 8.84361C22.3554 8.85367 22.2887 8.88887 22.2631 8.97434C22.2503 9.00702 22.2605 9.06483 22.2605 9.05729C22.2656 9.08746 22.2785 9.11511 22.2887 9.13271C22.3144 9.17293 22.3451 9.19807 22.3733 9.21566C22.4221 9.24835 22.4862 9.2584 22.5041 9.26846C22.5349 9.27851 22.5682 9.29108 22.6041 9.30113C22.6785 9.32376 22.7452 9.35644 22.8272 9.38409C23.1555 9.50978 23.5863 9.69832 24.0146 9.90195C24.4428 10.1056 24.866 10.3218 25.1891 10.4826C25.3506 10.5606 25.4865 10.6259 25.5814 10.6737C25.6763 10.7189 25.7327 10.7441 25.7327 10.7441L25.7379 10.7466C25.8251 10.7843 25.9276 10.7441 25.9661 10.6561C25.9969 10.5882 25.9764 10.5103 25.9225 10.4625C25.9225 10.4625 25.7353 10.3016 25.4327 10.0905C25.1301 9.87932 24.7044 9.62794 24.2531 9.41929C24.0274 9.31622 23.794 9.22321 23.5735 9.14779C23.3504 9.07238 23.1375 9.01707 22.9503 8.97936C22.8555 8.96177 22.7631 8.94668 22.6913 8.93914C22.6272 8.93411 22.5246 8.914 22.5503 8.92657C22.5554 8.9316 22.5682 8.93914 22.5785 8.96177C22.5836 8.96931 22.5913 8.9869 22.5939 9.00702C22.5913 8.9869 22.599 9.03467 22.5888 9.05729C22.5682 9.12517 22.5195 9.14528 22.5041 9.1503C22.4836 9.15533 22.4734 9.15533 22.458 9.15533C22.4426 9.15282 22.4272 9.1503 22.3939 9.13019C22.3631 9.11008 22.3297 9.05226 22.3374 9.0045C22.3374 8.98439 22.3528 8.9492 22.3528 8.95422C22.3528 8.95674 22.3528 8.95674 22.3528 8.95674C22.3528 8.95925 22.3528 8.95925 22.3528 8.95925C22.3221 9.0397 22.3631 9.12768 22.4451 9.16036C22.517 9.18801 22.5964 9.15785 22.6349 9.09751V9.08495Z" fill="#432D27"/>
<path d="M21.8546 7.55649C22.9419 7.76262 24.1036 7.38303 24.9294 6.66156C25.7577 5.94008 26.2654 4.90689 26.4526 3.83599C25.4859 3.84102 24.5088 4.03962 23.6574 4.48708C22.8035 4.93455 22.0803 5.64094 21.6956 6.51324C21.5443 6.85764 21.4648 7.30762 21.7367 7.57157" fill="#432D27"/>
<path d="M21.8367 7.66935L22.0418 7.69951L22.2598 7.71711C22.4034 7.72214 22.547 7.71962 22.6881 7.71208C22.8291 7.69951 22.9727 7.68443 23.1112 7.65929C23.2522 7.63164 23.3907 7.59896 23.5266 7.55874C23.7985 7.47578 24.0626 7.36517 24.3113 7.23194C24.4344 7.16406 24.5575 7.08865 24.6729 7.01072C24.7909 6.92776 24.8986 6.84481 25.0114 6.74928C25.114 6.6613 25.214 6.56326 25.3166 6.46019C25.414 6.35963 25.5089 6.25405 25.5987 6.14344C25.7756 5.92474 25.9321 5.69095 26.0705 5.44459C26.3398 4.95188 26.5398 4.42146 26.6527 3.86841C26.6732 3.76283 26.6039 3.65976 26.4962 3.63965C26.486 3.63714 26.4731 3.63714 26.4629 3.63462H26.4501C25.8551 3.61954 25.2525 3.67987 24.6652 3.82316C24.3703 3.89355 24.0857 3.9941 23.8061 4.11728C23.7369 4.14745 23.6677 4.18013 23.5984 4.21281L23.501 4.26811L23.4061 4.3209C23.2753 4.3938 23.1394 4.47927 23.0163 4.56223C22.5137 4.90411 22.0777 5.34907 21.7674 5.87195C21.6905 6.00267 21.6238 6.13841 21.5623 6.27668C21.5341 6.34204 21.5007 6.42248 21.4802 6.48784C21.4546 6.56326 21.4315 6.64118 21.4161 6.71911C21.3853 6.87497 21.3751 7.04089 21.4059 7.2068C21.4315 7.37271 21.2593 7.38136 21.4974 7.5336C21.5921 7.54114 21.7464 7.65929 21.8367 7.66935C21.87 7.62661 21.8572 7.5336 21.8264 7.49338L21.8239 7.48835C21.6879 7.30484 21.7136 7.05597 21.8008 6.81967C21.8213 6.75934 21.8469 6.70403 21.8751 6.64621C21.9059 6.57834 21.9393 6.53309 21.97 6.47024C22.0367 6.35461 22.1085 6.23897 22.1854 6.13087C22.3393 5.90966 22.5162 5.70855 22.706 5.51749C22.8983 5.32896 23.1086 5.15801 23.3292 5.00216C23.442 4.92423 23.5523 4.85384 23.6702 4.78596L23.7651 4.73317L23.8523 4.68792C23.9113 4.65524 23.9728 4.62508 24.0344 4.59743C24.2806 4.47927 24.5396 4.38626 24.8037 4.30331C25.332 4.13991 25.891 4.05946 26.4526 4.03684L26.25 3.80305C26.1757 4.3209 26.0295 4.83373 25.7936 5.30633C25.6756 5.54263 25.5397 5.77139 25.3807 5.98256C25.3012 6.08814 25.2166 6.19121 25.1294 6.29176C25.0422 6.38729 24.9473 6.4803 24.8447 6.57331C24.7499 6.65627 24.6421 6.74174 24.5344 6.81967C24.4242 6.8976 24.3139 6.96798 24.1959 7.03586C24.078 7.10122 23.96 7.16155 23.8369 7.21434C23.7138 7.26462 23.5882 7.31238 23.46 7.3526C23.3317 7.39031 23.2009 7.42299 23.0702 7.44813C22.9368 7.47075 22.806 7.48835 22.6701 7.49841C22.5368 7.50595 22.4034 7.50343 22.2701 7.49589L22.0752 7.47578L21.87 7.44059C21.8059 7.43053 21.7469 7.47075 21.7341 7.5336C21.729 7.59896 21.7726 7.65929 21.8367 7.66935Z" fill="#432D27"/>
<path d="M25.72 10.4415C24.9943 13.0182 28.505 13.6064 30.1821 14.2852C29.9 12.6285 29.1743 10.4214 27.2484 10.0267C26.6612 9.90603 26.1765 10.0267 25.8072 10.4792C25.8329 10.449 25.8585 10.4163 25.8867 10.3862" fill="#432D27"/>
<path d="M25.607 10.4161C25.5763 10.5468 25.5455 10.68 25.5301 10.8284C25.5147 10.9716 25.5096 11.1124 25.5224 11.2557C25.5327 11.399 25.5609 11.5398 25.6019 11.678C25.6429 11.8163 25.7045 11.947 25.7737 12.0727C26.0686 12.573 26.5431 12.9249 27.0303 13.1989C27.5252 13.4704 28.0432 13.6866 28.5638 13.8802C29.0844 14.0737 29.6127 14.2497 30.105 14.4659C30.205 14.5086 30.3204 14.4659 30.364 14.3678C30.3794 14.3352 30.3846 14.2975 30.3794 14.2648L30.3769 14.2547C30.2922 13.664 30.1691 13.0757 29.9742 12.5026C29.8768 12.216 29.7614 11.9319 29.6152 11.6579C29.5486 11.5197 29.4614 11.3889 29.3819 11.2532C29.2895 11.1275 29.2049 10.9943 29.0998 10.8736C28.9972 10.7529 28.8921 10.6323 28.7715 10.5267C28.6587 10.4111 28.5202 10.3231 28.392 10.225C28.2535 10.1421 28.115 10.0516 27.9612 9.99124C27.8099 9.93091 27.6586 9.86806 27.497 9.83538C27.4175 9.81527 27.3406 9.79516 27.256 9.78259C27.1893 9.77254 27.0918 9.76248 27.0098 9.75997C26.8431 9.75243 26.6687 9.76751 26.4995 9.81276C26.1584 9.90074 25.8737 10.1345 25.7019 10.3985L25.6865 10.4236C25.6481 10.484 25.666 10.5619 25.725 10.5996C25.7866 10.6373 25.866 10.6197 25.9045 10.5619L25.9712 10.4613C26.0071 10.4085 25.9917 10.3356 25.9379 10.3004C25.8917 10.2703 25.8301 10.2778 25.7917 10.313L25.7019 10.396L25.9045 10.5594C26.0045 10.4638 26.1097 10.3809 26.2251 10.3231C26.3405 10.2653 26.461 10.2275 26.5841 10.2099C26.7097 10.1949 26.838 10.1999 26.9662 10.215C27.0329 10.225 27.0841 10.2351 27.1636 10.2527C27.2252 10.2678 27.2919 10.2954 27.356 10.313C27.4893 10.3457 27.6099 10.406 27.7304 10.4613C27.8509 10.5191 27.9637 10.5921 28.0766 10.665C28.1817 10.7479 28.2946 10.8233 28.3894 10.9214C28.492 11.0094 28.5843 11.1099 28.6715 11.2155C28.7638 11.316 28.8382 11.4342 28.9203 11.5448C28.9895 11.6655 29.0741 11.7761 29.1382 11.9018C29.2767 12.1456 29.3896 12.4045 29.4998 12.666C29.7127 13.1939 29.8588 13.752 29.9794 14.3176L30.2512 14.1064C29.7152 13.9128 29.1818 13.7721 28.6587 13.6011C28.1381 13.4302 27.6175 13.2517 27.1406 12.9953C26.9021 12.8671 26.6738 12.7263 26.4687 12.5579C26.3661 12.4749 26.2712 12.3844 26.1815 12.2864C26.0943 12.1883 26.0199 12.0828 25.9532 11.9722C25.825 11.7484 25.7455 11.4995 25.7301 11.2431C25.7199 11.1149 25.7276 10.9842 25.743 10.8585C25.7558 10.7353 25.7891 10.6021 25.825 10.4714C25.8404 10.4111 25.8019 10.3482 25.7404 10.3331C25.6788 10.318 25.6147 10.3557 25.5993 10.4161C25.607 10.4111 25.607 10.4136 25.607 10.4161Z" fill="#432D27"/>
<path d="M4.48681 8.57789C4.48681 8.57789 4.50989 8.62566 4.55862 8.71616C4.59708 8.80414 4.65863 8.92983 4.69197 9.1058C4.72274 9.27926 4.71761 9.48791 4.56118 9.69153C4.48681 9.79208 4.37398 9.90018 4.25858 10.0032C4.14318 10.1038 4.00983 10.1692 3.84571 10.2044C3.52003 10.2722 3.10972 10.1792 2.77378 9.93537C2.68916 9.87504 2.61222 9.80214 2.54555 9.72169C2.51221 9.68399 2.47631 9.63371 2.45323 9.59851C2.42502 9.54824 2.38656 9.49042 2.37117 9.44517C2.27885 9.25412 2.22756 9.01782 2.23269 8.779C2.24039 8.29886 2.45067 7.78603 2.86867 7.42655C3.28154 7.06204 3.86366 6.83831 4.48169 6.79809C5.09202 6.75787 5.77671 6.89613 6.25626 7.32348C6.74863 7.75335 6.87942 8.4698 6.73581 9.14602C6.70247 9.31696 6.64606 9.47785 6.57938 9.65131C6.51271 9.80717 6.43321 9.96805 6.33576 10.1189C6.14343 10.4231 5.90237 10.7021 5.61259 10.9334C5.32538 11.1646 4.99713 11.3557 4.64324 11.4889C4.29192 11.6196 3.90469 11.685 3.5226 11.6925C2.75327 11.7051 1.96086 11.4613 1.36848 10.956C1.07357 10.7096 0.82226 10.3879 0.650444 10.0535C0.517094 9.72672 0.455551 9.30942 0.445293 8.91475C0.427341 8.11786 0.60685 7.30086 1.03254 6.62715C1.45054 5.94589 2.12755 5.45067 2.89944 5.18923C3.67133 4.91522 4.51246 4.86745 5.36128 4.87751C5.78954 4.88756 6.21523 4.90014 6.64092 4.91019C7.07944 4.92779 7.47436 4.95795 7.88211 5.02834C9.51821 5.28978 11.0543 5.92578 12.534 6.56179C13.2751 6.88105 14.0034 7.20533 14.7317 7.50448C15.1112 7.65028 15.4497 7.79106 15.8241 7.91675C16.0087 7.9796 16.1908 8.04244 16.3755 8.10529C16.5575 8.16059 16.7396 8.2159 16.9217 8.26869C18.3706 8.69102 19.7836 8.93989 21.0965 9.05552C22.4095 9.1787 23.6199 9.16362 24.6842 9.09574C25.7484 9.01782 26.6716 8.89464 27.4204 8.74381C28.1692 8.59549 28.7539 8.46477 29.1463 8.34913C29.5386 8.24104 29.7489 8.18322 29.7489 8.18322C29.8284 8.16059 29.8746 8.08015 29.8515 8.00474C29.831 7.93183 29.754 7.88658 29.6797 7.90167L29.672 7.90418C29.672 7.90418 29.4617 7.94692 29.0642 8.02485C28.6693 8.1078 28.0872 8.21087 27.3435 8.31394C26.5998 8.41198 25.692 8.50499 24.6508 8.54773C23.6097 8.57789 22.4326 8.54521 21.1581 8.41198C19.8861 8.2712 18.5167 8.02987 17.1166 7.61258C16.9422 7.55979 16.7653 7.50951 16.5883 7.45672C16.4139 7.3989 16.2395 7.34108 16.0626 7.28075C15.7138 7.16763 15.3394 7.01428 14.9907 6.88356C14.2752 6.59698 13.5495 6.27772 12.8007 5.95846C11.3107 5.32749 9.71823 4.6764 7.97186 4.43256C7.53847 4.36469 7.07944 4.33703 6.66144 4.32949C6.22805 4.32446 5.79467 4.32195 5.36128 4.31692C4.49195 4.31944 3.57132 4.38228 2.7148 4.70405C2.28654 4.86243 1.87624 5.07862 1.51465 5.36268C1.15051 5.64423 0.850468 5.99869 0.61454 6.38331C0.142689 7.1626 -0.0291252 8.06507 0.00421143 8.93235C0.0119057 9.15105 0.0375481 9.36724 0.0785789 9.58343C0.122173 9.80214 0.170897 10.0058 0.27091 10.2345C0.483757 10.6367 0.763277 10.9761 1.10691 11.2577C1.79161 11.8208 2.68147 12.0772 3.53029 12.052C3.95855 12.0369 4.37398 11.959 4.76633 11.8082C5.15613 11.6548 5.51258 11.4412 5.82288 11.1822C6.13574 10.9233 6.39474 10.6166 6.60502 10.2848C6.71017 10.1189 6.79736 9.94291 6.87429 9.7594C6.94096 9.58595 7.00764 9.39992 7.04098 9.21138C7.11791 8.83682 7.12304 8.44717 7.03328 8.07512C6.98712 7.8891 6.92045 7.71564 6.81787 7.54219C6.79222 7.49694 6.76915 7.46677 6.7435 7.42906C6.7153 7.38382 6.68452 7.35114 6.65631 7.31343C6.59477 7.24053 6.53066 7.17265 6.45885 7.10981C5.88442 6.60704 5.12792 6.47129 4.4586 6.51402C3.78416 6.56179 3.14306 6.80814 2.67634 7.22293C2.20192 7.6352 1.95573 8.22847 1.95317 8.779C1.9506 9.05804 2.00446 9.3245 2.12498 9.57086C2.15319 9.63874 2.18397 9.67896 2.21474 9.73426C2.25577 9.79962 2.29167 9.84487 2.3327 9.89515C2.41733 9.99319 2.50965 10.0787 2.60966 10.1516C3.00714 10.4407 3.48157 10.5563 3.89956 10.4758C4.10728 10.4381 4.30474 10.3376 4.44065 10.2194C4.57657 10.1013 4.69197 9.99319 4.79198 9.85995C4.89199 9.73175 4.9561 9.58092 4.98174 9.44014C5.00739 9.29685 4.99457 9.16865 4.97918 9.06055C4.94072 8.84436 4.86635 8.69102 4.82275 8.59046C4.77659 8.49745 4.75351 8.44969 4.75351 8.44969C4.69197 8.28369 4.08078 7.75049 4.0106 8.07512C4.0106 8.12749 4.33581 8.25049 4.48681 8.57789Z" fill="#432D27"/>
<path d="M6.5843 4.73273C6.5843 4.73273 6.78689 4.75284 7.14078 4.78552C7.49467 4.82323 7.99986 4.88105 8.61275 4.93133C9.22565 4.98412 9.94369 5.01177 10.713 4.97909C11.4823 4.94892 12.3004 4.84837 13.1031 4.6724C13.5031 4.57939 13.9031 4.48638 14.2878 4.36571C14.675 4.25259 15.0494 4.11684 15.411 3.98361C15.77 3.84283 16.1111 3.69954 16.4317 3.55374C16.7497 3.40542 17.0497 3.25962 17.3215 3.11633C17.8652 2.83226 18.3063 2.57082 18.6114 2.3848C18.914 2.19626 19.0884 2.08817 19.0884 2.08817C19.1782 2.03286 19.2038 1.91471 19.1474 1.82673C19.091 1.73874 18.9704 1.7136 18.8807 1.76891C18.8807 1.76891 18.8781 1.76891 18.8781 1.77142L18.873 1.77393C18.873 1.77393 18.7037 1.88454 18.4114 2.0756C18.1165 2.26413 17.6882 2.5306 17.16 2.81969C16.8958 2.9655 16.606 3.11633 16.2958 3.26716C15.9829 3.41548 15.6521 3.56631 15.3033 3.71211C14.952 3.85037 14.5878 3.99115 14.2109 4.11181C13.8339 4.2375 13.4441 4.34309 13.0518 4.4361C12.2645 4.61709 11.4618 4.72519 10.7053 4.7629C9.94882 4.80061 9.23847 4.76793 8.63327 4.72016C8.02807 4.66989 7.52288 4.60201 7.16899 4.5643C6.81253 4.5266 6.60994 4.50397 6.60994 4.50397C6.54583 4.49643 6.48685 4.54168 6.48172 4.60453C6.47403 4.66737 6.52019 4.72519 6.5843 4.73022V4.73273Z" fill="#432D27"/>
<path d="M13.0079 4.70031C13.2131 4.73299 13.4234 4.76064 13.6388 4.78326C13.8516 4.80338 14.0619 4.81594 14.2748 4.82349C14.7005 4.83605 15.1236 4.82851 15.5467 4.79081C16.393 4.7179 17.229 4.54445 18.0342 4.2805C18.2342 4.21262 18.4342 4.14223 18.6317 4.0643C18.8292 3.98637 19.0241 3.90593 19.219 3.82046C19.6062 3.64701 19.9832 3.45092 20.3447 3.23222C21.0705 2.7923 21.7475 2.26942 22.3347 1.65352C22.4065 1.57811 22.404 1.45744 22.327 1.38706C22.3091 1.36946 22.286 1.35689 22.2629 1.34683L22.2552 1.34432C21.3782 1.03009 20.4755 0.753566 19.5318 0.602736C19.2959 0.565028 19.06 0.537376 18.8189 0.517266C18.5804 0.502182 18.3394 0.49464 18.0983 0.502181C17.6162 0.51475 17.1315 0.577598 16.6597 0.70329C16.4289 0.761108 16.1878 0.844066 15.9673 0.93205C15.7442 1.02506 15.5262 1.13064 15.3159 1.24628C14.8953 1.47756 14.5004 1.74402 14.1337 2.05825C13.7696 2.375 13.4465 2.75459 13.231 3.19451C13.1208 3.4107 13.0464 3.64198 12.99 3.87577C12.9336 4.10955 12.9054 4.34586 12.9079 4.58467C12.9079 4.64752 12.9618 4.70031 13.0259 4.69779C13.0849 4.69779 13.131 4.65506 13.1413 4.60227V4.59975C13.1772 4.38356 13.231 4.16989 13.3028 3.96626C13.3772 3.76264 13.4747 3.56908 13.5849 3.38305C13.808 3.01854 14.1106 2.7018 14.4543 2.43282C14.7979 2.16132 15.1851 1.92502 15.5749 1.71386C15.7724 1.61079 15.9724 1.51526 16.1776 1.43231C16.3853 1.34683 16.5827 1.27393 16.8033 1.21611C17.2264 1.09796 17.67 1.03512 18.1137 1.01752C18.5599 1.00244 19.0087 1.02758 19.4574 1.08288C20.3576 1.196 21.2448 1.43482 22.1244 1.70631L22.0424 1.39711C21.9065 1.54794 21.768 1.69626 21.6218 1.83955C21.4756 1.98032 21.3243 2.11859 21.1705 2.25182C20.8576 2.51577 20.5268 2.75962 20.1806 2.98083C19.8344 3.20205 19.4728 3.40316 19.101 3.58416C18.7292 3.76516 18.3445 3.9185 17.9521 4.05173C17.1674 4.31569 16.3494 4.49417 15.5211 4.5721C15.1082 4.60981 14.6902 4.62741 14.2773 4.60981C14.0696 4.59975 13.8619 4.58467 13.6567 4.56456C13.4541 4.54193 13.249 4.51177 13.0387 4.47658C12.9746 4.46652 12.9156 4.50674 12.9028 4.56959C12.8925 4.63243 12.9336 4.69025 12.9977 4.70282L13.0079 4.70031Z" fill="#432D27"/>
<path d="M11.3337 5.95478C11.3337 5.95478 11.4209 6.05282 11.5722 6.22376C11.7184 6.39471 11.9107 6.6486 12.1364 6.96786C12.3492 7.29215 12.6006 7.66923 12.8314 8.09407C12.9493 8.30523 13.0698 8.52394 13.1878 8.75018C13.3058 8.97643 13.4135 9.21022 13.5263 9.44149C13.6315 9.67779 13.7494 9.90655 13.8494 10.1403C13.9546 10.3716 14.0571 10.5979 14.1546 10.8191C14.3546 11.2565 14.5316 11.6688 14.6957 12.0157C14.7701 12.1916 14.8547 12.3475 14.9162 12.4908C14.9855 12.6316 15.0444 12.7547 15.0932 12.8553C15.1881 13.0589 15.2522 13.172 15.2522 13.172L15.2547 13.1771C15.2881 13.2324 15.3599 13.2525 15.4163 13.2223C15.4573 13.1997 15.4804 13.157 15.4778 13.1117C15.4778 13.1117 15.4676 12.9785 15.4291 12.7497C15.3881 12.521 15.3086 12.1992 15.1778 11.8271C15.047 11.4551 14.8624 11.0353 14.6418 10.5953C14.5341 10.3741 14.4136 10.1504 14.2854 9.92666C14.1597 9.70042 14.0264 9.47668 13.893 9.25044C13.7545 9.02922 13.6186 8.80297 13.4776 8.5893C13.3417 8.37059 13.2058 8.15691 13.0698 7.95329C12.9339 7.74967 12.8031 7.55108 12.6775 7.36505C12.5493 7.18154 12.4262 7.00557 12.3133 6.84468C12.1954 6.68631 12.0954 6.53799 11.9954 6.4123C11.8979 6.2841 11.8107 6.17349 11.7389 6.08299C11.5927 5.90702 11.5107 5.80647 11.5107 5.80647C11.4696 5.75619 11.3953 5.75116 11.3466 5.78887C11.2953 5.82909 11.2901 5.90199 11.3286 5.94976C11.3312 5.95227 11.3337 5.95478 11.3337 5.95478Z" fill="#432D27"/>
<path d="M12.3928 7.31799C12.3594 7.51659 12.3081 7.70764 12.2928 7.91629C12.2825 8.01936 12.2697 8.12243 12.262 8.22549L12.2543 8.53218C12.244 8.7358 12.262 8.93943 12.2646 9.14305C12.2851 9.34667 12.2953 9.55029 12.3287 9.7514C12.362 9.95251 12.3876 10.1536 12.4364 10.3522C12.4748 10.5533 12.5287 10.7494 12.5877 10.9455C12.639 11.1441 12.7159 11.3326 12.78 11.5262C12.8518 11.7172 12.9364 11.9058 13.0185 12.0918C13.1159 12.2728 13.198 12.4613 13.3083 12.6348L13.4673 12.9012L13.6468 13.1551C13.7596 13.3286 13.9083 13.4794 14.0391 13.6403C14.1109 13.7157 14.1904 13.7861 14.2648 13.859C14.3392 13.9344 14.4187 14.0023 14.5059 14.0652L14.7623 14.2562C14.8469 14.3115 14.9367 14.3693 15.0239 14.4221L15.5496 14.7389C15.8932 14.9475 16.2214 15.1662 16.483 15.4377C16.56 15.5182 16.6882 15.5207 16.7702 15.4453C16.801 15.4176 16.8215 15.3799 16.8292 15.3422C16.8754 15.1361 16.9318 14.9299 16.9626 14.7213C17.0036 14.5126 17.0292 14.3015 17.0523 14.0903C17.0754 13.8791 17.0882 13.668 17.0959 13.4543C17.0985 13.2406 17.1036 13.0295 17.0908 12.8158C17.0882 12.6021 17.06 12.3909 17.0369 12.1773C17.001 11.9661 16.9754 11.7524 16.9215 11.5438L16.8472 11.2295L16.7523 10.9203C16.6907 10.7142 16.6035 10.5131 16.5241 10.312C16.4292 10.1159 16.342 9.91731 16.2214 9.73129C16.1163 9.54024 15.9778 9.36678 15.8522 9.1883C15.706 9.02238 15.5701 8.84893 15.4034 8.70312C15.3213 8.62771 15.247 8.55229 15.1572 8.47939C15.0726 8.41403 15.0008 8.34616 14.9085 8.28331C14.552 8.01936 14.1802 7.79311 13.7699 7.6272C13.5673 7.54424 13.357 7.47888 13.1518 7.42106C12.9467 7.36073 12.7364 7.31799 12.5697 7.24761L12.5595 7.24258C12.5005 7.21744 12.4312 7.24258 12.4056 7.3004C12.3825 7.35319 12.4005 7.41101 12.4466 7.44117C12.6492 7.57441 12.8518 7.63977 13.0441 7.72021C13.2365 7.79814 13.4211 7.88612 13.5981 7.98165C13.7776 8.07466 13.9494 8.18024 14.1135 8.29588C14.2802 8.40649 14.4417 8.53218 14.5905 8.65788C14.6648 8.71821 14.7469 8.79362 14.8238 8.8615C14.8956 8.92434 14.9623 8.99976 15.0316 9.06763C15.1777 9.20087 15.2906 9.36427 15.4188 9.51258C15.5291 9.67598 15.6521 9.83184 15.7445 10.0053C15.847 10.1737 15.9342 10.3522 16.0214 10.5307C16.0984 10.7142 16.1804 10.8952 16.2394 11.0837L16.3317 11.3678L16.4035 11.6569C16.4548 11.8505 16.483 12.0491 16.5189 12.2451C16.542 12.4437 16.5728 12.6423 16.583 12.8434C16.6035 13.0445 16.6061 13.2456 16.6087 13.4468C16.6087 13.6479 16.6035 13.849 16.5907 14.0501C16.5753 14.2512 16.56 14.4523 16.5266 14.6534C16.5035 14.8545 16.4599 15.0531 16.4266 15.2517L16.7728 15.1562C16.4548 14.8545 16.0881 14.6358 15.7265 14.4397L15.1906 14.1481C15.1034 14.0978 15.0187 14.0501 14.9315 13.9948L14.6931 13.8263C14.611 13.7736 14.5366 13.7107 14.4648 13.6428C14.393 13.5775 14.3161 13.5146 14.2468 13.4442C14.1186 13.2959 13.9725 13.1602 13.8622 12.9968L13.6852 12.7605L13.5262 12.5091C13.4134 12.3457 13.3365 12.1622 13.239 11.9887C13.157 11.8077 13.0749 11.6267 13.0031 11.4432C12.939 11.2572 12.8621 11.0737 12.8108 10.8801C12.7518 10.6916 12.7005 10.5005 12.6595 10.3044C12.6107 10.1109 12.5825 9.9148 12.5492 9.72123C12.5159 9.52515 12.5056 9.32656 12.4825 9.13048C12.48 8.93188 12.4569 8.73581 12.4723 8.53721L12.4851 8.24058C12.4928 8.14254 12.5082 8.04701 12.5184 7.94897C12.5338 7.75792 12.5877 7.55681 12.6236 7.36073V7.3557C12.6338 7.29286 12.5928 7.23252 12.5287 7.22247C12.4671 7.21241 12.4056 7.25515 12.3928 7.31799C12.3953 7.31799 12.3953 7.31799 12.3928 7.31799Z" fill="#432D27"/>
<path d="M21.6993 7.55143C21.6993 7.55143 21.7557 7.52127 21.8532 7.4735C21.9506 7.42323 22.0994 7.35535 22.266 7.26485C22.4404 7.18441 22.6328 7.0738 22.8482 6.96571C23.0585 6.85007 23.2892 6.73192 23.5124 6.60371C23.7329 6.46796 23.9534 6.33221 24.1432 6.17636C24.3304 6.02301 24.4997 5.86715 24.6176 5.71381C24.8689 5.41466 24.9382 5.14317 24.9382 5.14317C24.9561 5.07529 24.9151 5.00742 24.8459 4.98982C24.8151 4.98228 24.7843 4.98479 24.7587 4.99736L24.7535 4.99988C24.7535 4.99988 24.6894 5.03004 24.5971 5.09037C24.5022 5.15071 24.3766 5.24372 24.2381 5.36187C24.097 5.48002 23.9457 5.62582 23.7791 5.78168C23.6124 5.93754 23.4406 6.111 23.2559 6.27691C23.0738 6.44282 22.8841 6.60371 22.6943 6.73946C22.5045 6.87521 22.3173 6.98582 22.1558 7.07883C21.8301 7.25731 21.5916 7.34781 21.5916 7.34781C21.5301 7.37043 21.5018 7.43831 21.5249 7.49613C21.548 7.55646 21.6172 7.58411 21.6762 7.56149C21.6865 7.55646 21.6942 7.55395 21.6993 7.55143Z" fill="white"/>
<path d="M25.7662 10.7016C25.7662 10.7016 25.9508 10.8021 26.2021 10.9781C26.3278 11.0686 26.4714 11.1767 26.6176 11.3049C26.7663 11.4306 26.9125 11.5739 27.0561 11.7222C27.1997 11.868 27.3433 12.0163 27.4818 12.1445C27.6228 12.2727 27.751 12.3934 27.8741 12.4839C27.9972 12.5744 28.11 12.6397 28.1972 12.68C28.2819 12.7227 28.3383 12.7378 28.3383 12.7378H28.3408C28.4126 12.7579 28.4845 12.7202 28.5075 12.6498C28.5152 12.6272 28.5152 12.602 28.5101 12.5794C28.5101 12.5794 28.4947 12.5216 28.4537 12.4361C28.4126 12.3481 28.3408 12.2325 28.2357 12.1118C28.1331 11.9912 27.9921 11.868 27.8357 11.7473C27.6792 11.6241 27.4997 11.511 27.3176 11.4029C27.1356 11.2948 26.9535 11.1892 26.7817 11.0887C26.6124 10.9881 26.4586 10.8876 26.3278 10.8046C26.0636 10.6337 25.897 10.5105 25.897 10.5105L25.8944 10.508C25.8431 10.4703 25.7687 10.4803 25.7303 10.5331C25.6918 10.5859 25.7021 10.6563 25.7559 10.694C25.7585 10.6965 25.7636 10.699 25.7662 10.7016Z" fill="white"/>
<path d="M29.7078 8.2102C29.7142 8.22952 29.7127 8.23744 29.7241 8.26865C29.7351 8.29739 29.7456 8.32366 29.7581 8.34449C29.7806 8.3891 29.8113 8.42978 29.8438 8.46503C29.909 8.53551 29.9833 8.59167 30.0582 8.63496C30.2084 8.72401 30.3727 8.77748 30.513 8.8274C30.6651 8.87786 30.8224 8.92486 30.9784 8.96444C31.1367 9.00106 31.2942 9.03272 31.4556 9.05351C32.0987 9.13961 32.7761 9.12287 33.4227 8.95062C33.5844 8.90756 33.7447 8.85706 33.9009 8.79963C33.9912 8.76625 34.0505 8.73822 34.1267 8.70727C34.202 8.67136 34.283 8.63449 34.3556 8.59907C34.6467 8.44702 34.9253 8.27414 35.1833 8.08436C35.6995 7.70482 36.1521 7.28004 36.5882 6.86065C36.7278 6.72694 36.7207 6.52398 36.5741 6.40623C36.5536 6.38934 36.5307 6.37541 36.5082 6.36396L36.489 6.35449C36.3484 6.28675 36.2126 6.21308 36.0681 6.15621C35.9256 6.09391 35.7759 6.04049 35.6271 5.99202C35.4779 5.94108 35.3223 5.90398 35.1692 5.86392C35.0113 5.82978 34.8562 5.79515 34.6976 5.77388C34.3796 5.72638 34.0528 5.71103 33.7258 5.71102C33.5631 5.71597 33.3981 5.72388 33.2349 5.74169C33.0707 5.75456 32.9097 5.78475 32.7473 5.80752C32.5867 5.84019 32.4257 5.87039 32.2678 5.91792C32.1089 5.9605 31.9543 6.01001 31.8005 6.06449C31.6463 6.11648 31.4989 6.19028 31.3501 6.25664C31.206 6.33243 31.0606 6.40078 30.9247 6.49045C30.6485 6.66037 30.3798 6.87238 30.1769 7.14201C30.083 7.27042 29.9964 7.4231 29.9444 7.55707C29.8877 7.69698 29.8479 7.83396 29.8199 7.97147C29.7975 8.07485 29.8727 8.16913 29.9894 8.18483C30.076 8.19548 30.1575 8.16109 30.2048 8.09936L30.2044 8.09688C30.2896 7.98528 30.3695 7.87713 30.4541 7.77839C30.541 7.6767 30.6173 7.59724 30.7144 7.51933C30.8975 7.36794 31.1185 7.24834 31.3583 7.13572C31.6046 7.02709 31.8555 6.92787 32.116 6.84997C32.2456 6.8073 32.3733 6.77007 32.5079 6.7393C32.6384 6.70159 32.7757 6.68567 32.9071 6.65291C33.0407 6.63253 33.1758 6.60424 33.3112 6.59376C33.4452 6.57586 33.5843 6.56984 33.7201 6.56184C33.9921 6.54832 34.2668 6.54965 34.5379 6.57969C34.6735 6.58703 34.8085 6.60724 34.9431 6.62497C35.0757 6.64815 35.2111 6.67083 35.3422 6.70192C35.4733 6.73301 35.6049 6.76657 35.7297 6.8115C35.8589 6.84803 35.9798 6.90383 36.1074 6.94827L36.0115 6.44411C35.6275 6.89286 35.2514 7.33767 34.8144 7.71895C34.594 7.90735 34.3658 8.08434 34.1115 8.23008L33.9256 8.33345C33.8583 8.36542 33.7782 8.40724 33.7209 8.42984C33.5883 8.48833 33.4487 8.54037 33.3073 8.58251C33.1659 8.62464 33.0204 8.65984 32.8731 8.68513C32.7262 8.71289 32.5776 8.73075 32.4276 8.74118C32.1281 8.76452 31.8261 8.75766 31.5297 8.71666C31.2366 8.67766 30.941 8.60845 30.6731 8.51408C30.5258 8.4577 30.3981 8.41326 30.2924 8.34463C30.1839 8.27649 30.1258 8.21246 30.1159 8.12483C30.1039 8.02481 30.0034 7.95273 29.8892 7.96723C29.775 7.98173 29.6892 8.07304 29.7012 8.17306C29.7029 8.18296 29.7043 8.19039 29.706 8.20029L29.7078 8.2102Z" fill="#432D27"/>
<path d="M30.0709 8.03195C30.0709 8.03195 30.0623 8.00025 30.0455 7.93932C30.0226 7.8769 30.0104 7.79222 29.9989 7.69467C29.986 7.5897 29.9858 7.45702 30.0029 7.30607C30.0289 7.15613 30.0629 6.98442 30.1395 6.80537C30.2195 6.62831 30.327 6.44141 30.4653 6.262C30.6059 6.07962 30.7838 5.90872 30.9947 5.75768C31.2022 5.60465 31.4401 5.4898 31.7076 5.39284C31.9569 5.30921 32.2396 5.24793 32.5138 5.22128C33.0678 5.167 33.6194 5.23054 34.1073 5.3484C34.2273 5.37885 34.3476 5.41178 34.4599 5.44865C34.5132 5.46758 34.5784 5.48702 34.6222 5.50246C34.685 5.52487 34.7453 5.55024 34.7867 5.56865C34.9828 5.64728 35.173 5.74223 35.3301 5.83266C35.4905 5.92508 35.63 6.01597 35.7407 6.10927C35.859 6.19615 35.9431 6.28891 36.0151 6.36331C36.1543 6.51806 36.2239 6.6286 36.2239 6.6286L36.2356 6.64447C36.2923 6.73172 36.4208 6.7607 36.5257 6.70696C36.5929 6.67245 36.6345 6.60917 36.6348 6.54531C36.6348 6.54531 36.6367 6.5067 36.6381 6.43245C36.6396 6.35819 36.6319 6.24976 36.5934 6.11602C36.5576 5.98179 36.491 5.82224 36.3798 5.66013C36.2662 5.50098 36.1153 5.33036 35.9207 5.17748C35.726 5.02459 35.4965 4.89045 35.2236 4.77651C35.1506 4.74566 35.0912 4.72524 35.0284 4.70283C34.9497 4.67296 34.885 4.65599 34.8104 4.63306C34.6651 4.59166 34.5168 4.55076 34.3622 4.5237C33.7446 4.40259 33.0451 4.41547 32.3865 4.57448C32.0543 4.65447 31.7425 4.76668 31.444 4.92001C31.1608 5.06051 30.8913 5.24459 30.6647 5.43916C30.2153 5.83276 29.9144 6.2851 29.7652 6.69864C29.6816 6.9044 29.6402 7.10036 29.6124 7.27356C29.5941 7.45026 29.5888 7.60173 29.5972 7.73046C29.603 7.79582 29.6107 7.85573 29.6167 7.90575C29.6247 7.95032 29.6318 7.98994 29.6375 8.02213C29.6486 8.08403 29.6543 8.11622 29.6543 8.11622C29.672 8.21527 29.7802 8.27837 29.8941 8.2588C30.0081 8.23924 30.0847 8.14188 30.067 8.04283C30.0727 8.04186 30.0718 8.0369 30.0709 8.03195Z" fill="#432D27"/>
</svg>
